<svg width="24" height="24" viewBox="0 0 24 24" fill="none" xmlns="http://www.w3.org/2000/svg">
<path d="M10.617 11.473L15.303 15.168L12.201 7.506L10.617 11.473ZM12 0C5.371 0 0 5.371 0 12C0 18.629 5.371 24 12 24C18.629 24 24 18.629 24 12C24 5.371 18.629 0 12 0ZM17.797 17.305C17.786 17.776 17.394 18.147 16.922 18.135C16.686 18.135 16.506 18.045 16.258 17.842L10.068 12.842L7.989 18.045H6.191L11.438 5.44C11.562 5.126 11.865 4.92 12.202 4.934C12.528 4.92 12.832 5.123 12.944 5.44L17.718 16.934C17.763 17.045 17.798 17.168 17.798 17.282C17.797 17.291 17.797 17.291 17.797 17.305V17.305Z" fill="black"/>
</svg>
