<?xml version="1.0" encoding="iso-8859-1"?>
<!-- Uploaded to: SVG Repo, www.svgrepo.com, Generator: SVG Repo Mixer Tools -->
<svg version="1.1" id="Layer_1" xmlns="http://www.w3.org/2000/svg" xmlns:xlink="http://www.w3.org/1999/xlink" 
	 viewBox="0 0 512 512" xml:space="preserve">
<rect x="329.808" y="56" style="fill:#333333;" width="182.192" height="400"/>
<rect x="360.8" y="125.024" style="fill:#FFFFFF;" width="31.888" height="11.952"/>
<rect x="360.8" y="102.08" style="fill:#0BA4E0;" width="120.528" height="11.952"/>
<rect x="404.96" y="125.024" style="fill:#D6D6D6;" width="31.888" height="11.952"/>
<rect x="404.96" y="401.12" style="fill:#0BA4E0;" width="31.888" height="11.952"/>
<rect x="449.12" y="125.024" style="fill:#FFFFFF;" width="31.888" height="11.952"/>
<rect y="56" style="fill:#333333;" width="182.192" height="400"/>
<rect x="30.992" y="125.024" style="fill:#FFFFFF;" width="31.888" height="11.952"/>
<rect x="30.992" y="102.08" style="fill:#0BA4E0;" width="120.528" height="11.952"/>
<rect x="75.152" y="125.024" style="fill:#D6D6D6;" width="31.888" height="11.952"/>
<rect x="75.152" y="401.12" style="fill:#0BA4E0;" width="31.888" height="11.952"/>
<rect x="119.312" y="125.024" style="fill:#FFFFFF;" width="31.888" height="11.952"/>
<g>
	<rect x="284.784" y="218.448" style="fill:#0BA4E0;" width="82.544" height="16"/>
	<polygon style="fill:#0BA4E0;" points="293.408,187.056 236.864,226.448 293.408,265.84 	"/>
	<rect x="144.64" y="324.272" style="fill:#0BA4E0;" width="82.544" height="16"/>
	<polygon style="fill:#0BA4E0;" points="218.592,371.664 275.136,332.272 218.592,292.88 	"/>
</g>
</svg>